<svg id="Layer_1" enable-background="new 0 0 511 511" height="512" viewBox="0 0 511 511" width="512" xmlns="http://www.w3.org/2000/svg"><g><g><g><path d="m502.593 319.121c.236-.91.463-1.826.688-2.743-.222.917-.455 1.83-.688 2.743z" fill="#b1e4f9"/></g><g><path d="m279.249 364.128h125.594c37.067-10.898 71.004-30.908 99.857-53.889.178-1.087 5.801-23.477 5.801-54.239 0-140.833-114.167-255-255-255-98.132 0-158.575 55.347-158.742 55.441-3.787 17.481-10.374 42.85-10.374 61.465 0 117.859 83.183 217.005 192.864 246.222z" fill="#e27d47"/></g><g><path d="m317.831 364.128c-127.595-14.003-226.872-122.125-226.872-253.449 0-18.615 2.013-36.757 5.801-54.239-.006.005-.011.01-.017.014-58.646 46.721-96.243 118.738-96.243 199.546 0 38.658 8.619 75.298 24.013 108.128z" fill="#dd544f"/></g><g><path d="m486.469 364.128c6.717-14.326 12.144-29.377 16.124-45.007.233-.913.466-1.826.688-2.743.106-.436 1.068-4.522 1.418-6.139-36.632 29.177-81.472 48.485-130.502 53.889z" fill="#dd544f"/></g></g><g><g><path d="m141.817 372.878c40.264 87.851 238.501 113.586 283.597 73.235 26.027-23.289 47.243-51.845 61.976-83.993h-297.771z" fill="#7dbe3b"/></g><g><path d="m358.578 454.966c-79.237 0-150.02-36.148-196.788-92.846h-138.214c9.61 20.968 21.979 40.408 36.643 57.854l55.009 49.005c20.745 13.692 43.608 24.435 67.992 31.63l169.313-8.733c26.915-11.091 51.514-26.657 72.874-45.77-21.299 5.771-43.702 8.86-66.829 8.86z" fill="#5ea570"/></g><g><path d="m352.531 491.871c-6.139-6.504-15.194-10.309-25.215-10.032l-63.863 1.321 29.105-94.664-77.674-12.117 14.783 113.731c1.137 9.5 62.523 18.9 79.969 15.124 14.819-3.209 29.158-7.704 42.895-13.363z" fill="#7a402b"/></g><g><path d="m309.638 505.24c-3.454-14.278-16.779-23.835-32.464-23.401l-63.863 1.321 29.105-94.664-77.674-12.117 14.783 113.731c.459 3.836 1.765 7.384 3.7 10.483 22.916 6.761 47.168 10.407 72.275 10.407 18.578 0 36.69-1.988 54.138-5.76z" fill="#664545"/></g><g><path d="m363.545 30.141c3.985 20.105-8.041 39.428-8.041 39.428s-18.487-13.275-22.472-33.38c-2.561-12.921 1.491-25.518 4.713-32.871 1.548-3.533 6.126-4.44 8.905-1.765 5.784 5.567 14.334 15.667 16.895 28.588z" fill="#664545"/></g><g><path d="m432.439 256.936-1.444-25.526c-.378-6.691-5.392-12.201-12.018-13.208l-47.587-7.231-.38 29.429 39.138.505c.666 10.645 9.835 18.735 20.48 18.07 1.062-.066 1.871-.978 1.811-2.039z" fill="#664545"/></g><g><path d="m125.168 284.824c-1.611 54.108-26.479 102.37-64.945 135.147 8.52 10.136 17.815 19.599 27.793 28.298.307.267.613.525.918.773 12.636 10.254 31.205 8.422 42.095-3.67 27.628-30.678 40.975-67.346 40.975-114.392 0-15.383 4.948-31.868 1.406-46.156z" fill="#664545"/></g><g><path d="m152.72 284.824c.852 7.175 1.303 14.473 1.303 21.878 0 56.833-25.658 107.667-66.012 141.574 8.586 7.486 17.684 14.397 27.224 20.693 38.976-33.889 63.619-83.835 63.619-139.539 0-15.383-1.901-30.318-5.443-44.606z" fill="#ffcd9b"/></g><g><path d="m420.496 72.134-36.073-18.505-14.208 22.898-40.343-9.063-66.09 87.255 113.621 39.321 1.13-70.868c.187-11.705 9.729-21.096 21.435-21.096h13.673c9.079 0 16.364-7.68 15.713-16.897-.395-5.584-3.877-10.489-8.858-13.045z" fill="#934e37"/></g><g><path d="m373.474 169.793c-21.502-32.497-63.912-42.737-97.786-23.477-5.443 3.094-10.325 6.755-14.625 10.86-12.21 11.655-27.092 20.251-43.594 23.799-1.803.388-3.606.819-5.407 1.296-62.628 16.563-99.97 80.76-83.407 143.388 16.563 62.627 80.76 99.97 143.388 83.407 51.731-13.682 86.206-59.864 87.301-110.816.372-17.331 6.016-34.038 15.189-48.748 14.798-23.729 15.373-54.875-1.059-79.709z" fill="#934e37"/></g><g><path d="m411.993 292.26 7.856-24.33c2.059-6.377-.631-13.325-6.447-16.652l-41.78-23.901-10.965 27.313 36.324 14.582c-3.217 10.169 2.419 21.021 12.588 24.238 1.015.32 2.097-.238 2.424-1.25z" fill="#934e37"/></g><g><ellipse cx="322.59" cy="317.696" fill="#664545" rx="51.742" ry="11.462"/></g><g><path d="m374.332 317.696s.604 70.611-94.013 88.849l-9.472-88.849z" fill="#934e37"/></g><g><path d="m321.28 362.12c-62.301 17.751-124.117-20.088-140.68-82.716-8.45-31.953-2.863-64.31 12.95-90.545-51.231 23.191-79.751 80.623-64.894 136.799 16.563 62.627 75.112 96.726 139.572 90.283 29.474-2.946 80.234-21.286 102.224-77.598-5.882 2.662-24.283 16.686-49.172 23.777z" fill="#664545"/></g><g><circle cx="351.891" cy="71.981" fill="#934e37" r="39.256"/></g><g><path d="m329.827 77.203c-2.561-10.681-.481-21.384 4.93-30.005-2.69-1.595-4.98-3.782-6.725-6.388-11.934 9.145-18.046 24.759-14.315 40.323 5.054 21.083 26.243 34.077 47.326 29.022 2.817-.675 5.483-1.646 7.987-2.859-18.154.494-34.8-11.728-39.203-30.093z" fill="#664545"/></g><g><path d="m333.566 22.377c15.47 17.52 14.717 43.462 14.717 43.462s-25.34-2.972-40.811-20.492c-9.942-11.259-13.679-25.488-14.726-34.583-.503-4.37 3.486-7.892 7.76-6.852 8.895 2.165 23.118 7.206 33.06 18.465z" fill="#934e37"/></g><g><path d="m322.763 26.321c-5.728-10.58-15.027-17.885-22.707-22.489-4.099-.698-7.796 2.716-7.311 6.932 1.047 9.095 4.289 23.833 14.231 35.092 6.42 7.27 14.977 12.285 22.38 15.27.709-9.195-.163-22.927-6.593-34.805z" fill="#664545"/></g><g><path d="m371.167 69.746c-1.748 0-3.166-1.417-3.166-3.166v-7.635c0-1.748 1.417-3.166 3.166-3.166 1.748 0 3.166 1.417 3.166 3.166v7.635c-.001 1.748-1.418 3.166-3.166 3.166z" fill="#664545"/></g><g><path d="m371.167 65.745c-1.748 0-3.166-1.417-3.166-3.166v-7.635c0-1.748 1.417-3.166 3.166-3.166 1.748 0 3.166 1.417 3.166 3.166v7.635c-.001 1.749-1.418 3.166-3.166 3.166z" fill="#523838"/></g></g></g></svg>